<svg width="270" height="64" viewBox="0 0 270 64" fill="none" xmlns="http://www.w3.org/2000/svg">
<rect width="270" height="64" rx="15" fill="white" fill-opacity="0.6"/>
<path d="M23.488 16.128L22.432 19.968L22.08 18.528C22.5387 18.528 22.912 18.6613 23.2 18.928C23.488 19.1947 23.632 19.5627 23.632 20.032C23.632 20.4907 23.4827 20.864 23.184 21.152C22.896 21.4293 22.5333 21.568 22.096 21.568C21.648 21.568 21.2747 21.4293 20.976 21.152C20.688 20.864 20.544 20.4907 20.544 20.032C20.544 19.8933 20.5547 19.76 20.576 19.632C20.5973 19.4933 20.64 19.3333 20.704 19.152C20.768 18.9707 20.8587 18.7307 20.976 18.432L21.904 16.128H23.488ZM27.264 16.128L26.208 19.968L25.856 18.528C26.3147 18.528 26.688 18.6613 26.976 18.928C27.264 19.1947 27.408 19.5627 27.408 20.032C27.408 20.4907 27.2587 20.864 26.96 21.152C26.672 21.4293 26.3093 21.568 25.872 21.568C25.424 21.568 25.0507 21.4293 24.752 21.152C24.464 20.864 24.32 20.4907 24.32 20.032C24.32 19.8933 24.3307 19.76 24.352 19.632C24.3733 19.4933 24.416 19.3333 24.48 19.152C24.544 18.9707 24.6347 18.7307 24.752 18.432L25.68 16.128H27.264ZM29.2968 28V16.8H31.4408L38.0488 24.864H37.0087V16.8H39.5688V28H37.4408L30.8168 19.936H31.8568V28H29.2968ZM46.1386 28.128C45.2213 28.128 44.4053 27.936 43.6906 27.552C42.9866 27.168 42.4266 26.6453 42.0106 25.984C41.6053 25.312 41.4026 24.5493 41.4026 23.696C41.4026 22.832 41.6053 22.0693 42.0106 21.408C42.4266 20.736 42.9866 20.2133 43.6906 19.84C44.4053 19.456 45.2213 19.264 46.1386 19.264C47.0453 19.264 47.856 19.456 48.5706 19.84C49.2853 20.2133 49.8453 20.7307 50.2506 21.392C50.656 22.0533 50.8586 22.8213 50.8586 23.696C50.8586 24.5493 50.656 25.312 50.2506 25.984C49.8453 26.6453 49.2853 27.168 48.5706 27.552C47.856 27.936 47.0453 28.128 46.1386 28.128ZM46.1386 26.08C46.5546 26.08 46.928 25.984 47.2586 25.792C47.5893 25.6 47.8506 25.328 48.0426 24.976C48.2346 24.6133 48.3306 24.1867 48.3306 23.696C48.3306 23.1947 48.2346 22.768 48.0426 22.416C47.8506 22.064 47.5893 21.792 47.2586 21.6C46.928 21.408 46.5546 21.312 46.1386 21.312C45.7226 21.312 45.3493 21.408 45.0186 21.6C44.688 21.792 44.4213 22.064 44.2186 22.416C44.0266 22.768 43.9306 23.1947 43.9306 23.696C43.9306 24.1867 44.0266 24.6133 44.2186 24.976C44.4213 25.328 44.688 25.6 45.0186 25.792C45.3493 25.984 45.7226 26.08 46.1386 26.08ZM63.551 19.264C64.2337 19.264 64.8363 19.4027 65.359 19.68C65.8923 19.9467 66.3083 20.3627 66.607 20.928C66.9163 21.4827 67.071 22.1973 67.071 23.072V28H64.575V23.456C64.575 22.7627 64.431 22.2507 64.143 21.92C63.855 21.5893 63.4497 21.424 62.927 21.424C62.5643 21.424 62.239 21.5093 61.951 21.68C61.663 21.84 61.439 22.0853 61.279 22.416C61.119 22.7467 61.039 23.168 61.039 23.68V28H58.543V23.456C58.543 22.7627 58.399 22.2507 58.111 21.92C57.8337 21.5893 57.4337 21.424 56.911 21.424C56.5483 21.424 56.223 21.5093 55.935 21.68C55.647 21.84 55.423 22.0853 55.263 22.416C55.103 22.7467 55.023 23.168 55.023 23.68V28H52.527V19.392H54.911V21.744L54.463 21.056C54.7617 20.4693 55.183 20.0267 55.727 19.728C56.2817 19.4187 56.911 19.264 57.615 19.264C58.4043 19.264 59.0923 19.4667 59.679 19.872C60.2763 20.2667 60.671 20.8747 60.863 21.696L59.983 21.456C60.271 20.784 60.7297 20.2507 61.359 19.856C61.999 19.4613 62.7297 19.264 63.551 19.264ZM74.3963 28.128C73.6389 28.128 72.9883 27.968 72.4443 27.648C71.9003 27.328 71.4843 26.8427 71.1963 26.192C70.9083 25.5307 70.7643 24.6987 70.7643 23.696C70.7643 22.6827 70.9136 21.8507 71.2123 21.2C71.5216 20.5493 71.9483 20.064 72.4923 19.744C73.0363 19.424 73.6709 19.264 74.3963 19.264C75.2069 19.264 75.9323 19.4453 76.5723 19.808C77.2229 20.1707 77.7349 20.6827 78.1083 21.344C78.4923 22.0053 78.6843 22.7893 78.6843 23.696C78.6843 24.592 78.4923 25.3707 78.1083 26.032C77.7349 26.6933 77.2229 27.2107 76.5723 27.584C75.9323 27.9467 75.2069 28.128 74.3963 28.128ZM69.3083 28V16.128H71.8043V21.136L71.6443 23.68L71.6923 26.24V28H69.3083ZM73.9643 26.08C74.3803 26.08 74.7483 25.984 75.0683 25.792C75.3989 25.6 75.6603 25.328 75.8523 24.976C76.0549 24.6133 76.1562 24.1867 76.1562 23.696C76.1562 23.1947 76.0549 22.768 75.8523 22.416C75.6603 22.064 75.3989 21.792 75.0683 21.6C74.7483 21.408 74.3803 21.312 73.9643 21.312C73.5483 21.312 73.1749 21.408 72.8443 21.6C72.5136 21.792 72.2523 22.064 72.0603 22.416C71.8683 22.768 71.7723 23.1947 71.7723 23.696C71.7723 24.1867 71.8683 24.6133 72.0603 24.976C72.2523 25.328 72.5136 25.6 72.8443 25.792C73.1749 25.984 73.5483 26.08 73.9643 26.08ZM80.3551 28V19.392H82.7391V21.824L82.4031 21.12C82.6591 20.512 83.0698 20.0533 83.6351 19.744C84.2005 19.424 84.8885 19.264 85.6991 19.264V21.568C85.5925 21.5573 85.4965 21.552 85.4111 21.552C85.3258 21.5413 85.2351 21.536 85.1391 21.536C84.4565 21.536 83.9018 21.7333 83.4751 22.128C83.0591 22.512 82.8511 23.1147 82.8511 23.936V28H80.3551ZM91.3928 28.128C90.4114 28.128 89.5474 27.936 88.8008 27.552C88.0648 27.168 87.4941 26.6453 87.0888 25.984C86.6834 25.312 86.4808 24.5493 86.4808 23.696C86.4808 22.832 86.6781 22.0693 87.0728 21.408C87.4781 20.736 88.0274 20.2133 88.7208 19.84C89.4141 19.456 90.1981 19.264 91.0728 19.264C91.9154 19.264 92.6728 19.4453 93.3448 19.808C94.0274 20.16 94.5661 20.672 94.9608 21.344C95.3554 22.0053 95.5528 22.8 95.5528 23.728C95.5528 23.824 95.5474 23.936 95.5368 24.064C95.5261 24.1813 95.5154 24.2933 95.5048 24.4H88.5128V22.944H94.1927L93.2328 23.376C93.2328 22.928 93.1421 22.5387 92.9608 22.208C92.7794 21.8773 92.5288 21.6213 92.2088 21.44C91.8888 21.248 91.5154 21.152 91.0888 21.152C90.6621 21.152 90.2834 21.248 89.9528 21.44C89.6328 21.6213 89.3821 21.8827 89.2008 22.224C89.0194 22.5547 88.9288 22.9493 88.9288 23.408V23.792C88.9288 24.2613 89.0301 24.6773 89.2328 25.04C89.4461 25.392 89.7394 25.664 90.1128 25.856C90.4968 26.0373 90.9448 26.128 91.4568 26.128C91.9154 26.128 92.3154 26.0587 92.6568 25.92C93.0088 25.7813 93.3288 25.5733 93.6168 25.296L94.9448 26.736C94.5501 27.184 94.0541 27.5307 93.4568 27.776C92.8594 28.0107 92.1714 28.128 91.3928 28.128ZM96.8138 21.44L97.8698 17.6L98.2218 19.056C97.7631 19.056 97.3844 18.9227 97.0858 18.656C96.7978 18.3787 96.6538 18.0053 96.6538 17.536C96.6538 17.0773 96.8031 16.7093 97.1018 16.432C97.4004 16.144 97.7684 16 98.2057 16C98.6538 16 99.0218 16.144 99.3098 16.432C99.5978 16.7093 99.7418 17.0773 99.7418 17.536C99.7418 17.6747 99.7311 17.8133 99.7098 17.952C99.6991 18.08 99.6618 18.2347 99.5978 18.416C99.5444 18.5973 99.4538 18.8373 99.3258 19.136L98.3978 21.44H96.8138ZM100.59 21.44L101.646 17.6L101.998 19.056C101.539 19.056 101.16 18.9227 100.862 18.656C100.574 18.3787 100.43 18.0053 100.43 17.536C100.43 17.0773 100.579 16.7093 100.878 16.432C101.176 16.144 101.544 16 101.982 16C102.43 16 102.798 16.144 103.086 16.432C103.374 16.7093 103.518 17.0773 103.518 17.536C103.518 17.6747 103.507 17.8133 103.486 17.952C103.475 18.08 103.438 18.2347 103.374 18.416C103.32 18.5973 103.23 18.8373 103.102 19.136L102.174 21.44H100.59ZM104.439 30.464L105.495 26.624L105.847 28.064C105.388 28.064 105.009 27.9307 104.711 27.664C104.423 27.3973 104.279 27.0293 104.279 26.56C104.279 26.0907 104.428 25.7173 104.727 25.44C105.025 25.1627 105.393 25.024 105.831 25.024C106.279 25.024 106.647 25.168 106.935 25.456C107.223 25.7333 107.367 26.1013 107.367 26.56C107.367 26.6987 107.356 26.8373 107.335 26.976C107.313 27.104 107.271 27.264 107.207 27.456C107.153 27.6373 107.063 27.872 106.935 28.16L106.023 30.464H104.439ZM124.518 19.52C125.2 19.52 125.792 19.6533 126.294 19.92C126.806 20.176 127.2 20.5707 127.478 21.104C127.766 21.6373 127.91 22.3093 127.91 23.12V28H126.774V23.232C126.774 22.3467 126.56 21.68 126.134 21.232C125.718 20.7733 125.126 20.544 124.358 20.544C123.782 20.544 123.28 20.6667 122.854 20.912C122.438 21.1467 122.112 21.4933 121.878 21.952C121.654 22.4 121.542 22.944 121.542 23.584V28H120.406V23.232C120.406 22.3467 120.192 21.68 119.766 21.232C119.339 20.7733 118.742 20.544 117.974 20.544C117.408 20.544 116.912 20.6667 116.486 20.912C116.059 21.1467 115.728 21.4933 115.494 21.952C115.27 22.4 115.158 22.944 115.158 23.584V28H114.022V19.6H115.11V21.872L114.934 21.472C115.19 20.864 115.6 20.3893 116.166 20.048C116.742 19.696 117.419 19.52 118.198 19.52C119.019 19.52 119.718 19.728 120.294 20.144C120.87 20.5493 121.243 21.1627 121.414 21.984L120.966 21.808C121.211 21.1253 121.643 20.576 122.262 20.16C122.891 19.7333 123.643 19.52 124.518 19.52ZM134.558 28.08C133.684 28.08 132.916 27.8987 132.254 27.536C131.593 27.1627 131.076 26.656 130.702 26.016C130.329 25.3653 130.142 24.624 130.142 23.792C130.142 22.96 130.318 22.224 130.67 21.584C131.033 20.944 131.524 20.4427 132.142 20.08C132.772 19.7067 133.476 19.52 134.254 19.52C135.044 19.52 135.742 19.7013 136.35 20.064C136.969 20.416 137.454 20.9173 137.806 21.568C138.158 22.208 138.334 22.9493 138.334 23.792C138.334 23.8453 138.329 23.904 138.318 23.968C138.318 24.0213 138.318 24.08 138.318 24.144H131.006V23.296H137.71L137.262 23.632C137.262 23.024 137.129 22.4853 136.862 22.016C136.606 21.536 136.254 21.1627 135.806 20.896C135.358 20.6293 134.841 20.496 134.254 20.496C133.678 20.496 133.161 20.6293 132.702 20.896C132.244 21.1627 131.886 21.536 131.63 22.016C131.374 22.496 131.246 23.0453 131.246 23.664V23.84C131.246 24.48 131.385 25.0453 131.662 25.536C131.95 26.016 132.345 26.3947 132.846 26.672C133.358 26.9387 133.94 27.072 134.59 27.072C135.102 27.072 135.577 26.9813 136.014 26.8C136.462 26.6187 136.846 26.3413 137.166 25.968L137.806 26.704C137.433 27.152 136.964 27.4933 136.398 27.728C135.844 27.9627 135.23 28.08 134.558 28.08ZM150.098 28V26.144L150.05 25.84V22.736C150.05 22.0213 149.847 21.472 149.442 21.088C149.047 20.704 148.455 20.512 147.666 20.512C147.122 20.512 146.605 20.6027 146.114 20.784C145.623 20.9653 145.207 21.2053 144.866 21.504L144.354 20.656C144.781 20.2933 145.293 20.016 145.89 19.824C146.487 19.6213 147.117 19.52 147.778 19.52C148.866 19.52 149.703 19.792 150.29 20.336C150.887 20.8693 151.186 21.6853 151.186 22.784V28H150.098ZM147.202 28.08C146.573 28.08 146.023 27.9787 145.554 27.776C145.095 27.5627 144.743 27.2747 144.498 26.912C144.253 26.5387 144.13 26.112 144.13 25.632C144.13 25.1947 144.231 24.8 144.434 24.448C144.647 24.0853 144.989 23.7973 145.458 23.584C145.938 23.36 146.578 23.248 147.378 23.248H150.274V24.096H147.41C146.599 24.096 146.034 24.24 145.714 24.528C145.405 24.816 145.25 25.1733 145.25 25.6C145.25 26.08 145.437 26.464 145.81 26.752C146.183 27.04 146.706 27.184 147.378 27.184C148.018 27.184 148.567 27.04 149.026 26.752C149.495 26.4533 149.837 26.0267 150.05 25.472L150.306 26.256C150.093 26.8107 149.719 27.2533 149.186 27.584C148.663 27.9147 148.002 28.08 147.202 28.08ZM154.272 28V16.128H155.408V28H154.272ZM162.136 28.08C161.262 28.08 160.494 27.8987 159.832 27.536C159.171 27.1627 158.654 26.656 158.28 26.016C157.907 25.3653 157.72 24.624 157.72 23.792C157.72 22.96 157.896 22.224 158.248 21.584C158.611 20.944 159.102 20.4427 159.72 20.08C160.35 19.7067 161.054 19.52 161.832 19.52C162.622 19.52 163.32 19.7013 163.928 20.064C164.547 20.416 165.032 20.9173 165.384 21.568C165.736 22.208 165.912 22.9493 165.912 23.792C165.912 23.8453 165.907 23.904 165.896 23.968C165.896 24.0213 165.896 24.08 165.896 24.144H158.584V23.296H165.288L164.84 23.632C164.84 23.024 164.707 22.4853 164.44 22.016C164.184 21.536 163.832 21.1627 163.384 20.896C162.936 20.6293 162.419 20.496 161.832 20.496C161.256 20.496 160.739 20.6293 160.28 20.896C159.822 21.1627 159.464 21.536 159.208 22.016C158.952 22.496 158.824 23.0453 158.824 23.664V23.84C158.824 24.48 158.963 25.0453 159.24 25.536C159.528 26.016 159.923 26.3947 160.424 26.672C160.936 26.9387 161.518 27.072 162.168 27.072C162.68 27.072 163.155 26.9813 163.592 26.8C164.04 26.6187 164.424 26.3413 164.744 25.968L165.384 26.704C165.011 27.152 164.542 27.4933 163.976 27.728C163.422 27.9627 162.808 28.08 162.136 28.08ZM171.809 31.184C171.041 31.184 170.305 31.072 169.601 30.848C168.897 30.624 168.326 30.304 167.889 29.888L168.465 29.024C168.859 29.376 169.345 29.6533 169.921 29.856C170.507 30.0693 171.126 30.176 171.777 30.176C172.843 30.176 173.627 29.9253 174.129 29.424C174.63 28.9333 174.881 28.1653 174.881 27.12V25.024L175.041 23.584L174.929 22.144V19.6H176.017V26.976C176.017 28.4267 175.659 29.488 174.945 30.16C174.241 30.8427 173.195 31.184 171.809 31.184ZM171.601 27.68C170.801 27.68 170.081 27.5093 169.441 27.168C168.801 26.816 168.294 26.3307 167.921 25.712C167.558 25.0933 167.377 24.384 167.377 23.584C167.377 22.784 167.558 22.08 167.921 21.472C168.294 20.8533 168.801 20.3733 169.441 20.032C170.081 19.6907 170.801 19.52 171.601 19.52C172.347 19.52 173.019 19.6747 173.617 19.984C174.214 20.2933 174.689 20.752 175.041 21.36C175.393 21.968 175.569 22.7093 175.569 23.584C175.569 24.4587 175.393 25.2 175.041 25.808C174.689 26.416 174.214 26.88 173.617 27.2C173.019 27.52 172.347 27.68 171.601 27.68ZM171.713 26.672C172.331 26.672 172.881 26.544 173.361 26.288C173.841 26.0213 174.219 25.6587 174.497 25.2C174.774 24.7307 174.913 24.192 174.913 23.584C174.913 22.976 174.774 22.4427 174.497 21.984C174.219 21.5253 173.841 21.168 173.361 20.912C172.881 20.6453 172.331 20.512 171.713 20.512C171.105 20.512 170.555 20.6453 170.065 20.912C169.585 21.168 169.206 21.5253 168.929 21.984C168.662 22.4427 168.529 22.976 168.529 23.584C168.529 24.192 168.662 24.7307 168.929 25.2C169.206 25.6587 169.585 26.0213 170.065 26.288C170.555 26.544 171.105 26.672 171.713 26.672ZM179.178 28V19.6H180.266V21.888L180.154 21.488C180.388 20.848 180.783 20.3627 181.338 20.032C181.892 19.6907 182.58 19.52 183.402 19.52V20.624C183.359 20.624 183.316 20.624 183.274 20.624C183.231 20.6133 183.188 20.608 183.146 20.608C182.26 20.608 181.567 20.88 181.066 21.424C180.564 21.9573 180.314 22.72 180.314 23.712V28H179.178ZM190.114 28V26.144L190.066 25.84V22.736C190.066 22.0213 189.863 21.472 189.458 21.088C189.063 20.704 188.471 20.512 187.682 20.512C187.138 20.512 186.62 20.6027 186.13 20.784C185.639 20.9653 185.223 21.2053 184.882 21.504L184.37 20.656C184.796 20.2933 185.308 20.016 185.906 19.824C186.503 19.6213 187.132 19.52 187.794 19.52C188.882 19.52 189.719 19.792 190.306 20.336C190.903 20.8693 191.202 21.6853 191.202 22.784V28H190.114ZM187.218 28.08C186.588 28.08 186.039 27.9787 185.57 27.776C185.111 27.5627 184.759 27.2747 184.514 26.912C184.268 26.5387 184.146 26.112 184.146 25.632C184.146 25.1947 184.247 24.8 184.45 24.448C184.663 24.0853 185.004 23.7973 185.474 23.584C185.954 23.36 186.594 23.248 187.394 23.248H190.29V24.096H187.426C186.615 24.096 186.05 24.24 185.73 24.528C185.42 24.816 185.266 25.1733 185.266 25.6C185.266 26.08 185.452 26.464 185.826 26.752C186.199 27.04 186.722 27.184 187.394 27.184C188.034 27.184 188.583 27.04 189.042 26.752C189.511 26.4533 189.852 26.0267 190.066 25.472L190.322 26.256C190.108 26.8107 189.735 27.2533 189.202 27.584C188.679 27.9147 188.018 28.08 187.218 28.08ZM32.08 39.52C32.7627 39.52 33.3547 39.6533 33.856 39.92C34.368 40.176 34.7627 40.5707 35.04 41.104C35.328 41.6373 35.472 42.3093 35.472 43.12V48H34.336V43.232C34.336 42.3467 34.1227 41.68 33.696 41.232C33.28 40.7733 32.688 40.544 31.92 40.544C31.344 40.544 30.8427 40.6667 30.416 40.912C30 41.1467 29.6747 41.4933 29.44 41.952C29.216 42.4 29.104 42.944 29.104 43.584V48H27.968V43.232C27.968 42.3467 27.7547 41.68 27.328 41.232C26.9013 40.7733 26.304 40.544 25.536 40.544C24.9707 40.544 24.4747 40.6667 24.048 40.912C23.6213 41.1467 23.2907 41.4933 23.056 41.952C22.832 42.4 22.72 42.944 22.72 43.584V48H21.584V39.6H22.672V41.872L22.496 41.472C22.752 40.864 23.1627 40.3893 23.728 40.048C24.304 39.696 24.9813 39.52 25.76 39.52C26.5813 39.52 27.28 39.728 27.856 40.144C28.432 40.5493 28.8053 41.1627 28.976 41.984L28.528 41.808C28.7733 41.1253 29.2053 40.576 29.824 40.16C30.4533 39.7333 31.2053 39.52 32.08 39.52ZM42.0248 48.08C41.3101 48.08 40.6861 47.9467 40.1528 47.68C39.6194 47.4133 39.2034 47.0133 38.9048 46.48C38.6168 45.9467 38.4728 45.28 38.4728 44.48V39.6H39.6088V44.352C39.6088 45.248 39.8274 45.9253 40.2648 46.384C40.7128 46.832 41.3368 47.056 42.1368 47.056C42.7234 47.056 43.2301 46.9387 43.6568 46.704C44.0941 46.4587 44.4248 46.1067 44.6488 45.648C44.8834 45.1893 45.0008 44.64 45.0008 44V39.6H46.1368V48H45.0487V45.696L45.2248 46.112C44.9581 46.7307 44.5421 47.216 43.9768 47.568C43.4221 47.9093 42.7714 48.08 42.0248 48.08ZM52.7908 48.08C51.9588 48.08 51.2121 47.8987 50.5508 47.536C49.9001 47.1627 49.3881 46.656 49.0148 46.016C48.6414 45.3653 48.4548 44.624 48.4548 43.792C48.4548 42.9493 48.6414 42.208 49.0148 41.568C49.3881 40.928 49.9001 40.4267 50.5508 40.064C51.2121 39.7013 51.9588 39.52 52.7908 39.52C53.5054 39.52 54.1508 39.6587 54.7268 39.936C55.3028 40.2133 55.7561 40.6293 56.0868 41.184L55.2388 41.76C54.9508 41.3333 54.5934 41.0187 54.1668 40.816C53.7401 40.6133 53.2761 40.512 52.7748 40.512C52.1774 40.512 51.6388 40.6507 51.1588 40.928C50.6788 41.1947 50.3001 41.5733 50.0228 42.064C49.7454 42.5547 49.6068 43.1307 49.6068 43.792C49.6068 44.4533 49.7454 45.0293 50.0228 45.52C50.3001 46.0107 50.6788 46.3947 51.1588 46.672C51.6388 46.9387 52.1774 47.072 52.7748 47.072C53.2761 47.072 53.7401 46.9707 54.1668 46.768C54.5934 46.5653 54.9508 46.256 55.2388 45.84L56.0868 46.416C55.7561 46.96 55.3028 47.376 54.7268 47.664C54.1508 47.9413 53.5054 48.08 52.7908 48.08ZM62.4814 39.52C63.164 39.52 63.7614 39.6533 64.2734 39.92C64.796 40.176 65.2014 40.5707 65.4894 41.104C65.788 41.6373 65.9374 42.3093 65.9374 43.12V48H64.8014V43.232C64.8014 42.3467 64.5774 41.68 64.1294 41.232C63.692 40.7733 63.0734 40.544 62.2734 40.544C61.676 40.544 61.1534 40.6667 60.7054 40.912C60.268 41.1467 59.9267 41.4933 59.6814 41.952C59.4467 42.4 59.3294 42.944 59.3294 43.584V48H58.1934V36.128H59.3294V41.904L59.1054 41.472C59.372 40.864 59.7987 40.3893 60.3854 40.048C60.972 39.696 61.6707 39.52 62.4814 39.52ZM69.0059 48V39.6H70.1419V48H69.0059ZM68.5419 38.288L70.7339 36.304H72.2539L69.6619 38.288H68.5419ZM75.5588 48.08C74.8654 48.08 74.2094 47.984 73.5908 47.792C72.9721 47.5893 72.4868 47.3387 72.1348 47.04L72.6468 46.144C72.9881 46.4 73.4254 46.624 73.9588 46.816C74.4921 46.9973 75.0521 47.088 75.6388 47.088C76.4388 47.088 77.0148 46.9653 77.3668 46.72C77.7188 46.464 77.8948 46.128 77.8948 45.712C77.8948 45.4027 77.7934 45.1627 77.5908 44.992C77.3988 44.8107 77.1428 44.6773 76.8228 44.592C76.5028 44.496 76.1454 44.416 75.7508 44.352C75.3561 44.288 74.9614 44.2133 74.5668 44.128C74.1828 44.0427 73.8308 43.92 73.5108 43.76C73.1908 43.5893 72.9294 43.36 72.7268 43.072C72.5348 42.784 72.4388 42.4 72.4388 41.92C72.4388 41.4613 72.5668 41.0507 72.8228 40.688C73.0788 40.3253 73.4521 40.0427 73.9428 39.84C74.4441 39.6267 75.0521 39.52 75.7668 39.52C76.3108 39.52 76.8548 39.5947 77.3988 39.744C77.9428 39.8827 78.3908 40.0693 78.7428 40.304L78.2468 41.216C77.8734 40.96 77.4734 40.7787 77.0468 40.672C76.6201 40.5547 76.1934 40.496 75.7668 40.496C75.0094 40.496 74.4494 40.6293 74.0868 40.896C73.7348 41.152 73.5588 41.4827 73.5588 41.888C73.5588 42.208 73.6548 42.4587 73.8468 42.64C74.0494 42.8213 74.3108 42.9653 74.6308 43.072C74.9614 43.168 75.3188 43.248 75.7028 43.312C76.0974 43.376 76.4868 43.456 76.8708 43.552C77.2654 43.6373 77.6228 43.76 77.9428 43.92C78.2734 44.0693 78.5348 44.288 78.7268 44.576C78.9294 44.8533 79.0308 45.2213 79.0308 45.68C79.0308 46.1707 78.8921 46.5973 78.6148 46.96C78.3481 47.312 77.9534 47.5893 77.4308 47.792C76.9188 47.984 76.2948 48.08 75.5588 48.08ZM81.1153 48V39.6H82.2513V48H81.1153ZM81.6913 37.744C81.4566 37.744 81.2593 37.664 81.0993 37.504C80.9393 37.344 80.8593 37.152 80.8593 36.928C80.8593 36.704 80.9393 36.5173 81.0993 36.368C81.2593 36.208 81.4566 36.128 81.6913 36.128C81.9259 36.128 82.1233 36.2027 82.2833 36.352C82.4433 36.5013 82.5233 36.688 82.5233 36.912C82.5233 37.1467 82.4433 37.344 82.2833 37.504C82.1339 37.664 81.9366 37.744 81.6913 37.744ZM95.9081 39.52C96.5908 39.52 97.1828 39.6533 97.6841 39.92C98.1961 40.176 98.5908 40.5707 98.8681 41.104C99.1561 41.6373 99.3001 42.3093 99.3001 43.12V48H98.1641V43.232C98.1641 42.3467 97.9508 41.68 97.5241 41.232C97.1081 40.7733 96.5161 40.544 95.7481 40.544C95.1721 40.544 94.6708 40.6667 94.2441 40.912C93.8281 41.1467 93.5028 41.4933 93.2681 41.952C93.0441 42.4 92.9321 42.944 92.9321 43.584V48H91.7961V43.232C91.7961 42.3467 91.5828 41.68 91.1561 41.232C90.7295 40.7733 90.1321 40.544 89.3641 40.544C88.7988 40.544 88.3028 40.6667 87.8761 40.912C87.4495 41.1467 87.1188 41.4933 86.8841 41.952C86.6601 42.4 86.5481 42.944 86.5481 43.584V48H85.4121V39.6H86.5001V41.872L86.3241 41.472C86.5801 40.864 86.9908 40.3893 87.5561 40.048C88.1321 39.696 88.8095 39.52 89.5881 39.52C90.4095 39.52 91.1081 39.728 91.6841 40.144C92.2601 40.5493 92.6335 41.1627 92.8041 41.984L92.3561 41.808C92.6015 41.1253 93.0335 40.576 93.6521 40.16C94.2815 39.7333 95.0335 39.52 95.9081 39.52ZM105.805 48.08C104.994 48.08 104.264 47.8987 103.613 47.536C102.973 47.1627 102.466 46.656 102.093 46.016C101.72 45.3653 101.533 44.624 101.533 43.792C101.533 42.9493 101.72 42.208 102.093 41.568C102.466 40.928 102.973 40.4267 103.613 40.064C104.253 39.7013 104.984 39.52 105.805 39.52C106.637 39.52 107.373 39.7013 108.013 40.064C108.664 40.4267 109.17 40.928 109.533 41.568C109.906 42.208 110.093 42.9493 110.093 43.792C110.093 44.624 109.906 45.3653 109.533 46.016C109.17 46.656 108.664 47.1627 108.013 47.536C107.362 47.8987 106.626 48.08 105.805 48.08ZM105.805 47.072C106.413 47.072 106.952 46.9387 107.421 46.672C107.89 46.3947 108.258 46.0107 108.525 45.52C108.802 45.0187 108.941 44.4427 108.941 43.792C108.941 43.1307 108.802 42.5547 108.525 42.064C108.258 41.5733 107.89 41.1947 107.421 40.928C106.952 40.6507 106.418 40.512 105.821 40.512C105.224 40.512 104.69 40.6507 104.221 40.928C103.752 41.1947 103.378 41.5733 103.101 42.064C102.824 42.5547 102.685 43.1307 102.685 43.792C102.685 44.4427 102.824 45.0187 103.101 45.52C103.378 46.0107 103.752 46.3947 104.221 46.672C104.69 46.9387 105.218 47.072 105.805 47.072ZM118.76 48L115.032 39.6H116.216L119.64 47.392H119.08L122.552 39.6H123.672L119.928 48H118.76ZM128.605 48.08C127.73 48.08 126.962 47.8987 126.301 47.536C125.64 47.1627 125.122 46.656 124.749 46.016C124.376 45.3653 124.189 44.624 124.189 43.792C124.189 42.96 124.365 42.224 124.717 41.584C125.08 40.944 125.57 40.4427 126.189 40.08C126.818 39.7067 127.522 39.52 128.301 39.52C129.09 39.52 129.789 39.7013 130.397 40.064C131.016 40.416 131.501 40.9173 131.853 41.568C132.205 42.208 132.381 42.9493 132.381 43.792C132.381 43.8453 132.376 43.904 132.365 43.968C132.365 44.0213 132.365 44.08 132.365 44.144H125.053V43.296H131.757L131.309 43.632C131.309 43.024 131.176 42.4853 130.909 42.016C130.653 41.536 130.301 41.1627 129.853 40.896C129.405 40.6293 128.888 40.496 128.301 40.496C127.725 40.496 127.208 40.6293 126.749 40.896C126.29 41.1627 125.933 41.536 125.677 42.016C125.421 42.496 125.293 43.0453 125.293 43.664V43.84C125.293 44.48 125.432 45.0453 125.709 45.536C125.997 46.016 126.392 46.3947 126.893 46.672C127.405 46.9387 127.986 47.072 128.637 47.072C129.149 47.072 129.624 46.9813 130.061 46.8C130.509 46.6187 130.893 46.3413 131.213 45.968L131.853 46.704C131.48 47.152 131.01 47.4933 130.445 47.728C129.89 47.9627 129.277 48.08 128.605 48.08ZM134.693 48V39.6H135.781V41.888L135.669 41.488C135.904 40.848 136.299 40.3627 136.853 40.032C137.408 39.6907 138.096 39.52 138.917 39.52V40.624C138.875 40.624 138.832 40.624 138.789 40.624C138.747 40.6133 138.704 40.608 138.661 40.608C137.776 40.608 137.083 40.88 136.581 41.424C136.08 41.9573 135.829 42.72 135.829 43.712V48H134.693ZM144.006 48.08C143.216 48.08 142.608 47.8667 142.182 47.44C141.755 47.0133 141.542 46.4107 141.542 45.632V37.744H142.678V45.568C142.678 46.0587 142.8 46.4373 143.046 46.704C143.302 46.9707 143.664 47.104 144.134 47.104C144.635 47.104 145.051 46.96 145.382 46.672L145.782 47.488C145.558 47.6907 145.286 47.84 144.966 47.936C144.656 48.032 144.336 48.08 144.006 48.08ZM140.038 40.544V39.6H145.238V40.544H140.038ZM151.121 48.08C150.246 48.08 149.478 47.8987 148.817 47.536C148.155 47.1627 147.638 46.656 147.265 46.016C146.891 45.3653 146.705 44.624 146.705 43.792C146.705 42.96 146.881 42.224 147.233 41.584C147.595 40.944 148.086 40.4427 148.705 40.08C149.334 39.7067 150.038 39.52 150.817 39.52C151.606 39.52 152.305 39.7013 152.913 40.064C153.531 40.416 154.017 40.9173 154.369 41.568C154.721 42.208 154.897 42.9493 154.897 43.792C154.897 43.8453 154.891 43.904 154.881 43.968C154.881 44.0213 154.881 44.08 154.881 44.144H147.569V43.296H154.273L153.825 43.632C153.825 43.024 153.691 42.4853 153.425 42.016C153.169 41.536 152.817 41.1627 152.369 40.896C151.921 40.6293 151.403 40.496 150.817 40.496C150.241 40.496 149.723 40.6293 149.265 40.896C148.806 41.1627 148.449 41.536 148.193 42.016C147.937 42.496 147.809 43.0453 147.809 43.664V43.84C147.809 44.48 147.947 45.0453 148.225 45.536C148.513 46.016 148.907 46.3947 149.409 46.672C149.921 46.9387 150.502 47.072 151.153 47.072C151.665 47.072 152.139 46.9813 152.577 46.8C153.025 46.6187 153.409 46.3413 153.729 45.968L154.369 46.704C153.995 47.152 153.526 47.4933 152.961 47.728C152.406 47.9627 151.793 48.08 151.121 48.08ZM157.321 48.08C157.086 48.08 156.884 47.9947 156.713 47.824C156.553 47.6533 156.473 47.4453 156.473 47.2C156.473 46.944 156.553 46.736 156.713 46.576C156.884 46.416 157.086 46.336 157.321 46.336C157.556 46.336 157.753 46.416 157.913 46.576C158.084 46.736 158.169 46.944 158.169 47.2C158.169 47.4453 158.084 47.6533 157.913 47.824C157.753 47.9947 157.556 48.08 157.321 48.08Z" fill="black"/>
</svg>
